<svg width="24.000000" height="24.000000" viewBox="0 0 24 24" fill="none" xmlns="http://www.w3.org/2000/svg" xmlns:xlink="http://www.w3.org/1999/xlink">
	<desc>
			Created with Pixso.
	</desc>
	<defs>
		<clipPath id="clip85_493">
			<rect id="User Interface/user check" rx="0.000000" width="23.000000" height="23.000000" transform="translate(0.500000 0.500000)" fill="white" fill-opacity="0"/>
		</clipPath>
	</defs>
	<g clip-path="url(#clip85_493)">
		<path id="Ellipse 310 (Stroke)" d="M17 12.5C14.51 12.5 12.5 14.51 12.5 17C12.5 19.48 14.51 21.5 17 21.5C19.48 21.5 21.5 19.48 21.5 17C21.5 14.51 19.48 12.5 17 12.5ZM11.5 17C11.5 13.96 13.96 11.5 17 11.5C20.03 11.5 22.5 13.96 22.5 17C22.5 20.03 20.03 22.5 17 22.5C13.96 22.5 11.5 20.03 11.5 17Z" fill="#234778" fill-opacity="1.000000" fill-rule="evenodd"/>
		<path id="Vector 470 (Stroke)" d="M16.64 18.04L18.84 14.95L19.65 15.54L17.15 19.04C17.07 19.15 16.95 19.22 16.82 19.24C16.69 19.26 16.55 19.23 16.45 19.15L14.45 17.65L15.04 16.85L16.64 18.04Z" fill="#234778" fill-opacity="1.000000" fill-rule="evenodd"/>
		<path id="Ellipse 328 (Stroke)" d="M10 2.5C7.79 2.5 6 4.29 6 6.5C6 8.7 7.79 10.5 10 10.5C12.2 10.5 14 8.7 14 6.5C14 4.29 12.2 2.5 10 2.5ZM5 6.5C5 3.73 7.23 1.5 10 1.5C12.76 1.5 15 3.73 15 6.5C15 9.26 12.76 11.5 10 11.5C7.23 11.5 5 9.26 5 6.5Z" fill="#234778" fill-opacity="1.000000" fill-rule="evenodd"/>
		<path id="Ellipse 328 (Stroke)" d="M10 11.5C5.85 11.5 2.5 14.85 2.5 19L1.5 19C1.5 14.3 5.3 10.5 10 10.5L10 11.5Z" fill="#234778" fill-opacity="1.000000" fill-rule="evenodd"/>
	</g>
</svg>
