<svg width="20.000000" height="20.000000" viewBox="0 0 20 20" fill="none" xmlns="http://www.w3.org/2000/svg" xmlns:xlink="http://www.w3.org/1999/xlink">
	<desc>
			Created with Pixso.
	</desc>
	<defs/>
	<path id="Vector" d="M11 0L11 2.06C14.61 2.51 17.48 5.38 17.93 9L20 9L20 11L17.93 11C17.48 14.61 14.61 17.48 11 17.93L11 20L9 20L9 17.93C5.38 17.48 2.51 14.61 2.06 11L0 11L0 9L2.06 9C2.51 5.38 5.38 2.51 9 2.06L9 0L11 0ZM10 4C6.68 4 4 6.68 4 10C4 13.31 6.68 16 10 16C13.31 16 16 13.31 16 10C16 6.68 13.31 4 10 4ZM10 6C7.79 6 6 7.79 6 10C6 12.2 7.79 14 10 14C12.2 14 14 12.2 14 10C14 7.79 12.2 6 10 6ZM8 10C8 8.89 8.89 8 10 8C11.1 8 12 8.89 12 10C12 11.1 11.1 12 10 12C8.89 12 8 11.1 8 10Z" fill="#234778" fill-opacity="1.000000" fill-rule="evenodd"/>
</svg>
