<svg width="24.000000" height="24.000000" viewBox="0 0 24 24" fill="none" xmlns="http://www.w3.org/2000/svg" xmlns:xlink="http://www.w3.org/1999/xlink">
	<desc>
			Created with Pixso.
	</desc>
	<defs>
		<clipPath id="clip85_556">
			<rect id="User Interface/copy" rx="0.000000" width="23.000000" height="23.000000" transform="translate(0.500000 0.500000)" fill="white" fill-opacity="0"/>
		</clipPath>
	</defs>
	<g clip-path="url(#clip85_556)">
		<path id="Rectangle 71 (Stroke)" d="M1 2C1 1.44 1.44 1 2 1L14 1C14.55 1 15 1.44 15 2L15 3.5L13 3.5L13 3L3 3L3 17L7.5 17L7.5 19L2 19C1.44 19 1 18.55 1 18L1 2Z" fill="#234778" fill-opacity="1.000000" fill-rule="evenodd"/>
		<path id="Rectangle 71 (Stroke)" d="M9 6C9 5.44 9.44 5 10 5L22 5C22.55 5 23 5.44 23 6L23 22C23 22.55 22.55 23 22 23L10 23C9.44 23 9 22.55 9 22L9 6ZM11 7L11 21L21 21L21 7L11 7Z" fill="#234778" fill-opacity="1.000000" fill-rule="evenodd"/>
		<path id="Vector 176 (Stroke)" d="M17 12L13 12L13 10L17 10L17 12Z" fill="#234778" fill-opacity="1.000000" fill-rule="evenodd"/>
		<path id="Vector 176 (Stroke)" d="M19 15L13 15L13 13L19 13L19 15Z" fill="#234778" fill-opacity="1.000000" fill-rule="evenodd"/>
		<path id="Vector 176 (Stroke)" d="M16 18L13 18L13 16L16 16L16 18Z" fill="#234778" fill-opacity="1.000000" fill-rule="evenodd"/>
	</g>
</svg>
