<svg width="24.000000" height="24.000000" viewBox="0 0 24 24" fill="none" xmlns="http://www.w3.org/2000/svg" xmlns:xlink="http://www.w3.org/1999/xlink">
	<desc>
			Created with Pixso.
	</desc>
	<defs>
		<clipPath id="clip85_521">
			<rect id="User Interface/credit card" rx="0.000000" width="23.000000" height="23.000000" transform="translate(0.500000 0.500000)" fill="white" fill-opacity="0"/>
		</clipPath>
	</defs>
	<g clip-path="url(#clip85_521)">
		<path id="Rectangle 36 (Stroke)" d="M2 7C2 5.34 3.34 4 5 4L19 4C20.65 4 22 5.34 22 7L22 16C22 17.65 20.65 19 19 19L5 19C3.34 19 2 17.65 2 16L2 7ZM5 6C4.44 6 4 6.44 4 7L4 16C4 16.55 4.44 17 5 17L19 17C19.55 17 20 16.55 20 16L20 7C20 6.44 19.55 6 19 6L5 6Z" fill="#234778" fill-opacity="1.000000" fill-rule="evenodd"/>
		<path id="Vector 77 (Stroke)" d="M21 10.33L3 10.33L3 8.33L21 8.33L21 10.33Z" fill="#234778" fill-opacity="1.000000" fill-rule="evenodd"/>
		<path id="Ellipse 27 (Stroke)" d="M7 13C6.72 13 6.5 13.22 6.5 13.5C6.5 13.77 6.72 14 7 14C7.27 14 7.5 13.77 7.5 13.5C7.5 13.22 7.27 13 7 13ZM4.5 13.5C4.5 12.11 5.61 11 7 11C8.38 11 9.5 12.11 9.5 13.5C9.5 14.88 8.38 16 7 16C5.61 16 4.5 14.88 4.5 13.5Z" fill="#234778" fill-opacity="1.000000" fill-rule="evenodd"/>
		<path id="Ellipse 27 (Stroke)" d="M10 13C9.72 13 9.5 13.22 9.5 13.5C9.5 13.77 9.72 14 10 14C10.27 14 10.5 13.77 10.5 13.5C10.5 13.22 10.27 13 10 13ZM7.5 13.5C7.5 12.11 8.61 11 10 11C11.38 11 12.5 12.11 12.5 13.5C12.5 14.88 11.38 16 10 16C8.61 16 7.5 14.88 7.5 13.5Z" fill="#234778" fill-opacity="1.000000" fill-rule="evenodd"/>
	</g>
</svg>
