<svg width="24.000000" height="24.000000" viewBox="0 0 24 24" fill="none" xmlns="http://www.w3.org/2000/svg" xmlns:xlink="http://www.w3.org/1999/xlink">
	<desc>
			Created with Pixso.
	</desc>
	<defs>
		<clipPath id="clip85_546">
			<rect id="User Interface/donate 1" rx="0.000000" width="23.000000" height="23.000000" transform="translate(0.500000 0.500000)" fill="white" fill-opacity="0"/>
		</clipPath>
	</defs>
	<g clip-path="url(#clip85_546)">
		<path id="Vector 81 (Stroke)" d="M9.5 9.16C9.5 7.96 10.46 7 11.66 7L14.5 7L14.5 9L11.66 9C11.57 9 11.5 9.07 11.5 9.16C11.5 9.23 11.54 9.29 11.61 9.31L13.02 9.78C13.9 10.08 14.5 10.9 14.5 11.83C14.5 13.03 13.53 14 12.33 14L9.5 14L9.5 12L12.33 12C12.42 12 12.5 11.92 12.5 11.83C12.5 11.76 12.45 11.7 12.38 11.68L10.97 11.21C10.09 10.91 9.5 10.09 9.5 9.16Z" fill="#234778" fill-opacity="1.000000" fill-rule="evenodd"/>
		<path id="Vector 82 (Stroke)" d="M11 15L11 13L13 13L13 15L11 15Z" fill="#234778" fill-opacity="1.000000" fill-rule="evenodd"/>
		<path id="Vector 82 (Stroke)" d="M11 8L11 6L13 6L13 8L11 8Z" fill="#234778" fill-opacity="1.000000" fill-rule="evenodd"/>
		<path id="Ellipse 30 (Stroke)" d="M12 5.5C9.23 5.5 7 7.73 7 10.5C7 13.26 9.23 15.5 12 15.5C14.76 15.5 17 13.26 17 10.5C17 7.73 14.76 5.5 12 5.5ZM5 10.5C5 6.63 8.13 3.5 12 3.5C15.86 3.5 19 6.63 19 10.5C19 14.36 15.86 17.5 12 17.5C8.13 17.5 5 14.36 5 10.5Z" fill="#234778" fill-opacity="1.000000" fill-rule="evenodd"/>
		<path id="Vector 83 (Stroke)" d="M20 20L4 20L4 18L20 18L20 20Z" fill="#234778" fill-opacity="1.000000" fill-rule="evenodd"/>
	</g>
</svg>
