<svg width="24.000000" height="24.000000" viewBox="0 0 24 24" fill="none" xmlns="http://www.w3.org/2000/svg" xmlns:xlink="http://www.w3.org/1999/xlink">
	<desc>
			Created with Pixso.
	</desc>
	<defs>
		<clipPath id="clip85_533">
			<rect id="User Interface/chat" rx="0.000000" width="23.000000" height="23.000000" transform="translate(0.500000 0.500000)" fill="white" fill-opacity="0"/>
		</clipPath>
	</defs>
	<g clip-path="url(#clip85_533)">
		<path id="Rectangle 12 (Stroke)" d="M2 6C2 4.34 3.34 3 5 3L19 3C20.65 3 22 4.34 22 6L22 20C22 20.36 21.79 20.7 21.47 20.88C21.14 21.05 20.75 21.03 20.44 20.83L16.19 18L5 18C3.34 18 2 16.65 2 15L2 6ZM5 5C4.44 5 4 5.44 4 6L4 15C4 15.55 4.44 16 5 16L16.5 16C16.69 16 16.89 16.05 17.05 16.16L20 18.13L20 6C20 5.44 19.55 5 19 5L5 5Z" fill="#234778" fill-opacity="1.000000" fill-rule="evenodd"/>
		<path id="Ellipse 7 (Stroke)" d="M5 10.5C5 9.39 5.89 8.5 7 8.5C8.1 8.5 9 9.39 9 10.5C9 11.6 8.1 12.5 7 12.5C5.89 12.5 5 11.6 5 10.5Z" fill="#234778" fill-opacity="1.000000" fill-rule="evenodd"/>
		<path id="Ellipse 7 (Stroke)" d="M10 10.5C10 9.39 10.89 8.5 12 8.5C13.1 8.5 14 9.39 14 10.5C14 11.6 13.1 12.5 12 12.5C10.89 12.5 10 11.6 10 10.5Z" fill="#234778" fill-opacity="1.000000" fill-rule="evenodd"/>
		<path id="Ellipse 7 (Stroke)" d="M15 10.5C15 9.39 15.89 8.5 17 8.5C18.1 8.5 19 9.39 19 10.5C19 11.6 18.1 12.5 17 12.5C15.89 12.5 15 11.6 15 10.5Z" fill="#234778" fill-opacity="1.000000" fill-rule="evenodd"/>
	</g>
</svg>
